<?xml version="1.0" standalone="no"?>
<!DOCTYPE svg PUBLIC "-//W3C//DTD SVG 20010904//EN"
 "http://www.w3.org/TR/2001/REC-SVG-20010904/DTD/svg10.dtd">
<svg version="1.0" xmlns="http://www.w3.org/2000/svg"
 width="1280.000000pt" height="773.000000pt" viewBox="0 0 1280.000000 773.000000"
 preserveAspectRatio="xMidYMid meet">
<metadata>
Created by potrace 1.15, written by Peter Selinger 2001-2017
</metadata>
<g transform="translate(0.000000,773.000000) scale(0.100000,-0.100000)"
fill="#22222" stroke="none">
<path d="M12696 7694 c-129 -50 -301 -136 -546 -275 -365 -206 -505 -268 -705
-314 -55 -13 -155 -42 -223 -64 -404 -135 -819 -197 -1135 -172 -250 20 -466
75 -673 171 -74 34 -84 37 -79 20 7 -21 -9 -28 -20 -10 -15 24 -26 8 -20 -27
13 -83 21 -418 13 -592 -17 -374 -85 -699 -212 -1003 -42 -103 -250 -521 -379
-763 -268 -504 -537 -901 -799 -1179 l-84 -90 -54 18 c-78 25 -139 67 -213
145 -81 86 -147 187 -287 436 -101 179 -185 315 -194 315 -2 0 0 -17 5 -37 4
-21 6 -39 4 -41 -2 -2 -15 14 -30 35 -24 34 -26 35 -21 11 3 -14 10 -67 15
-116 18 -173 -18 -305 -102 -377 -52 -44 -110 -62 -234 -71 -54 -3 -104 -11
-110 -17 -7 -5 -13 -6 -13 -2 0 4 -31 -22 -69 -58 -39 -36 -86 -70 -106 -77
-49 -16 -123 -7 -183 22 -60 29 -175 139 -261 247 -65 83 -66 83 -69 52 l-3
-32 -19 23 c-19 23 -19 23 -19 -57 -1 -100 16 -218 73 -510 64 -329 70 -375
70 -520 0 -155 -20 -221 -83 -278 -39 -35 -39 -35 -167 -42 -480 -28 -1026 81
-1719 342 -446 168 -898 469 -1544 1027 -74 64 -139 116 -143 116 -4 0 -8 -7
-8 -16 0 -10 -6 -13 -18 -10 -14 5 -22 -7 -41 -57 -42 -111 -147 -319 -228
-452 -211 -348 -473 -650 -943 -1090 -113 -105 -244 -223 -292 -262 -171 -140
-498 -372 -713 -507 l-81 -51 346 0 c397 0 515 -12 765 -75 273 -68 483 -167
702 -326 63 -47 77 -63 114 -134 49 -94 124 -182 182 -211 130 -67 277 -21
600 184 181 115 279 169 342 186 67 17 294 41 400 41 505 -1 942 -294 1170
-786 90 -193 107 -224 145 -258 50 -45 93 -53 166 -30 91 28 167 86 348 263
277 270 344 320 455 331 36 4 105 19 153 33 132 39 247 58 408 64 557 22 1122
-216 1632 -688 91 -84 98 -89 98 -63 0 25 1 26 18 11 17 -16 18 -9 30 141 21
273 77 478 197 720 173 347 409 630 850 1017 50 44 101 93 115 110 68 87 144
120 369 160 368 66 435 158 335 458 l-27 80 6 291 c6 315 25 496 73 714 77
343 215 628 391 807 146 149 260 251 310 278 61 32 162 59 328 88 248 42 383
109 451 224 35 60 61 176 68 298 5 97 11 120 60 256 204 560 491 1075 1043
1870 63 90 113 165 111 166 -2 2 -43 -12 -92 -31z"/>
</g>
</svg>
